<svg width="26" height="26" viewBox="0 0 26 26" fill="none" xmlns="http://www.w3.org/2000/svg">
<path fill-rule="evenodd" clip-rule="evenodd" d="M14.0833 2.16675V6.50008H22.75V8.66675H20.1018L24.9167 17.3334V18.4167C24.9167 21.4083 22.4915 23.8334 19.5 23.8334C16.5085 23.8334 14.0833 21.4083 14.0833 18.4167V17.3334V17.3334L18.8981 8.66675H7.10185L11.9167 17.3334V17.3334V18.4167C11.9167 21.4083 9.49154 23.8334 6.5 23.8334C3.50845 23.8334 1.08333 21.4083 1.08333 18.4167V17.3334V17.3334L5.89814 8.66675H3.24999V6.50008H11.9167V2.16675H14.0833ZM19.5 12.0449L22.4381 17.3334H16.5619L19.5 12.0449ZM3.56191 17.3334H9.43808L6.5 12.0449L3.56191 17.3334Z" fill="white"/>
</svg>
