<svg width="26" height="26" viewBox="0 0 26 26" fill="none" xmlns="http://www.w3.org/2000/svg">
<path d="M3.85851 6.80656C3.99898 6.30123 4.07446 5.78213 4.25132 5.29823C4.76633 3.78833 5.73366 2.59376 7.05972 1.70839C7.42894 1.48474 7.75396 1.21057 8.09457 0.994588C8.8824 0.502875 9.64674 0.609866 10.2368 1.32479C10.5097 1.65699 10.7904 2.01828 10.9932 2.43165C11.3986 3.2584 11.8041 4.08515 12.1523 4.92722C12.3186 5.31916 12.3783 5.77085 12.4017 6.20111C12.4405 7.03254 12.0297 7.67269 11.3484 8.10466C10.8804 8.41714 10.4124 8.72963 9.94437 9.04211C9.23455 9.48174 8.96667 10.0836 9.06273 10.8997C9.14578 11.7816 9.50704 12.5579 9.92549 13.3188C10.7104 14.7609 11.6513 16.099 12.7613 17.267C13.276 17.815 13.8323 18.2896 14.542 18.5359C15.1581 18.7762 15.7379 18.652 16.2397 18.2369C16.7207 17.8586 17.2018 17.4803 17.6906 17.131C18.598 16.5137 19.4898 16.5242 20.3944 17.1548C20.8104 17.4487 21.1691 17.7579 21.507 18.1039C22.1023 18.7239 22.6403 19.3592 23.1862 20.0236C23.3707 20.2548 23.4981 20.5013 23.6332 20.7768C23.9503 21.5025 23.8202 22.161 23.2404 22.6282C22.4265 23.2516 21.6283 23.9331 20.6949 24.3391C19.5196 24.8723 18.2795 25.0487 16.9822 24.8974C15.1728 24.6652 13.5818 23.8755 12.1494 22.7626C10.8783 21.7937 9.80473 20.6471 8.79359 19.3902C7.221 17.4108 5.86162 15.3119 4.87146 12.9893C4.27372 11.5593 3.84758 10.0833 3.77244 8.54449C3.74389 8.20917 3.77254 7.85851 3.75179 7.55228C3.79604 7.25981 3.82727 7.03318 3.85851 6.80656Z" fill="#4C4C4C"/>
</svg>
