<svg width="26" height="26" viewBox="0 0 26 26" fill="none" xmlns="http://www.w3.org/2000/svg">
<path d="M3.85851 6.80644C3.99898 6.3011 4.07446 5.78201 4.25132 5.29811C4.76633 3.78821 5.73366 2.59363 7.05972 1.70827C7.42894 1.48462 7.75396 1.21045 8.09457 0.994466C8.8824 0.502753 9.64674 0.609744 10.2368 1.32467C10.5097 1.65687 10.7904 2.01816 10.9932 2.43153C11.3986 3.25828 11.8041 4.08502 12.1523 4.9271C12.3186 5.31904 12.3783 5.77073 12.4017 6.20099C12.4405 7.03242 12.0297 7.67257 11.3484 8.10454C10.8804 8.41702 10.4124 8.7295 9.94437 9.04199C9.23455 9.48162 8.96667 10.0834 9.06273 10.8996C9.14578 11.7815 9.50704 12.5577 9.92549 13.3186C10.7104 14.7608 11.6513 16.0989 12.7613 17.2669C13.276 17.8149 13.8323 18.2895 14.542 18.5358C15.1581 18.776 15.7379 18.6519 16.2397 18.2368C16.7207 17.8585 17.2018 17.4801 17.6906 17.1309C18.598 16.5136 19.4898 16.5241 20.3944 17.1547C20.8104 17.4486 21.1691 17.7578 21.507 18.1038C22.1023 18.7238 22.6403 19.3591 23.1862 20.0235C23.3707 20.2546 23.4981 20.5011 23.6333 20.7767C23.9503 21.5024 23.8202 22.1609 23.2404 22.628C22.4265 23.2514 21.6283 23.933 20.6949 24.339C19.5196 24.8722 18.2795 25.0486 16.9822 24.8973C15.1728 24.665 13.5818 23.8753 12.1494 22.7625C10.8783 21.7936 9.80473 20.647 8.79359 19.3901C7.221 17.4107 5.86162 15.3117 4.87146 12.9892C4.27372 11.5592 3.84758 10.0832 3.77243 8.54437C3.74389 8.20904 3.77254 7.85839 3.75179 7.55216C3.79604 7.25969 3.82727 7.03306 3.85851 6.80644Z" fill="white"/>
</svg>
