<svg width="26" height="26" viewBox="0 0 26 26" fill="none" xmlns="http://www.w3.org/2000/svg">
<path fill-rule="evenodd" clip-rule="evenodd" d="M1.08652 4.83325C1.51276 4.51992 2.03305 4.33325 2.59978 4.33325H23.3997C23.9664 4.33325 24.4867 4.51992 24.9129 4.83325L24.9028 4.84365L13.5278 15.802C13.2764 16.0442 12.7231 16.0442 12.4716 15.802L1.09659 4.84365L1.08652 4.83325ZM0 6.99989C0 6.58859 0.0931126 6.20126 0.25389 5.85406L11.5781 16.7707C12.3735 17.5367 13.6264 17.5368 14.4219 16.7707L25.7461 5.85406C25.9069 6.20126 26 6.58859 26 6.99989V19.6666C26 21.1439 24.8404 22.3332 23.4 22.3332H2.6C1.1596 22.3332 0 21.1439 0 19.6666V6.99989Z" fill="white"/>
</svg>
