<svg width="26" height="26" viewBox="0 0 26 26" fill="none" xmlns="http://www.w3.org/2000/svg">
<path fill-rule="evenodd" clip-rule="evenodd" d="M1.08652 4.83337C1.51276 4.52004 2.03305 4.33337 2.59978 4.33337H23.3997C23.9664 4.33337 24.4867 4.52004 24.9129 4.83337L24.9028 4.84377L13.5278 15.8021C13.2764 16.0443 12.7231 16.0443 12.4716 15.8021L1.09659 4.84377L1.08652 4.83337ZM0 7.00001C0 6.58871 0.0931126 6.20138 0.25389 5.85418L11.5781 16.7708C12.3735 17.5368 13.6264 17.5369 14.4219 16.7708L25.7461 5.85418C25.9069 6.20138 26 6.58871 26 7.00001V19.6667C26 21.144 24.8404 22.3333 23.4 22.3333H2.6C1.1596 22.3333 0 21.144 0 19.6667V7.00001Z" fill="#4C4C4C"/>
</svg>
