<svg width="22" height="22" viewBox="0 0 22 22" fill="none" xmlns="http://www.w3.org/2000/svg">
<g clip-path="url(#clip0_17991_616)">
<path fill-rule="evenodd" clip-rule="evenodd" d="M3.9468 0.0695696C3.9468 0.107297 6.21229 2.38933 8.94581 5.17688L13.9194 10.2582L15.1633 8.99163L16.4027 7.72981L15.999 7.46542C15.7839 7.32715 13.6425 5.9397 11.2403 4.38224C4.78264 0.19542 4.88255 0.247264 4.61711 0.144354C4.32911 0.0326268 4.216 0.00798763 3.9468 0.0695696ZM3.08443 11.0626V21.2896L8.10255 16.1805L13.1089 11.0833L8.09083 5.9565L3.08138 0.838526L3.08443 11.0626ZM16.0302 9.63191C15.3323 10.345 14.666 11.0021 14.666 11.0521C14.666 11.1022 17.3159 13.7283 17.3159 13.7283C19.2799 12.4171 20.4387 11.8148 20.4387 11.0521C20.4387 10.2894 19.9521 10.039 18.8074 9.29037C18.0041 8.76506 17.3266 8.32536 17.3135 8.32536C17.3003 8.32536 16.7281 8.9187 16.0302 9.63191ZM3.94859 21.8716C3.94859 21.8716 4.30513 22.0718 4.83995 21.7807C5.04317 21.6701 16.2681 14.4549 16.3419 14.3863C16.3818 14.3492 13.8555 11.846 13.8555 11.846C13.8555 11.846 12.9958 12.6898 3.94859 21.8716Z" fill="white"/>
</g>
<defs>
<clipPath id="clip0_17991_616">
<rect width="17.4706" height="22" fill="white" transform="translate(3)"/>
</clipPath>
</defs>
</svg>
