<svg width="98" height="38" viewBox="0 0 98 38" fill="none" xmlns="http://www.w3.org/2000/svg">
<path d="M28.9555 26.4971H9.0344C8.484 26.4971 8.03809 26.943 8.03809 27.4938C8.03809 28.0438 8.484 28.4897 9.0344 28.4897H28.955C29.5054 28.4897 29.9514 28.0438 29.9514 27.4938C29.9509 26.943 29.505 26.4971 28.9555 26.4971Z" fill="#BDBDBD"/>
<path d="M10.2795 23.9071C9.72912 23.9071 9.2832 24.353 9.2832 24.9034C9.2832 25.4538 9.72912 25.9002 10.2795 25.9002H27.7103C28.2607 25.9002 28.7066 25.4538 28.7066 24.9034C28.7066 24.353 28.2607 23.9071 27.7103 23.9071H27.4617V14.9422H27.7103C27.986 14.9422 28.208 14.7192 28.208 14.4445C28.208 14.1697 27.985 13.9468 27.7103 13.9468H10.2795C10.0043 13.9468 9.78183 14.1697 9.78183 14.4445C9.78183 14.7192 10.0048 14.9422 10.2795 14.9422H10.5286V23.9066H10.2795V23.9071ZM25.4691 14.9422V23.9066H22.4811V14.9422H25.4691ZM20.4884 14.9422V23.9066H17.5004V14.9422H20.4884ZM12.5203 14.9422H15.5083V23.9066H12.5203V14.9422Z" fill="#BDBDBD"/>
<path d="M9.03442 13.0511H28.9551C28.9583 13.0511 28.9621 13.0511 28.9649 13.0511C29.5157 13.0511 29.9612 12.6052 29.9612 12.0548C29.9612 11.6172 29.6794 11.2464 29.2881 11.1121L19.4043 6.66461C19.1445 6.548 18.8473 6.548 18.5871 6.66461L8.62582 11.1466C8.19716 11.3397 7.96161 11.8052 8.06049 12.2642C8.15891 12.7232 8.56471 13.0511 9.03442 13.0511Z" fill="#BDBDBD"/>
<path d="M40.002 12.868V26.466C40.002 27.402 40.678 28.078 41.614 28.078C42.576 28.078 43.252 27.402 43.252 26.466V12.868C43.252 11.932 42.576 11.256 41.614 11.256C40.678 11.256 40.002 11.932 40.002 12.868ZM47.2383 12.868V26.466C47.2383 27.35 47.8623 28 48.7463 28H54.3103C57.9243 28 59.9003 25.816 59.9003 23.32C59.9003 21.24 58.5743 19.94 56.9363 19.446C58.0543 18.978 59.4323 17.912 59.4323 15.962C59.4323 13.258 57.0663 11.36 53.9203 11.36H48.7463C47.8623 11.36 47.2383 11.984 47.2383 12.868ZM50.4623 14.22H53.6083C55.0123 14.22 56.0523 15.052 56.0523 16.222C56.0523 17.392 55.0383 18.224 53.6343 18.224H50.4623V14.22ZM50.4623 20.902H53.9723C55.4543 20.902 56.4943 21.786 56.4943 23.008C56.4943 24.23 55.4283 25.114 53.9723 25.114H50.4623V20.902ZM77.2915 25.634L72.1435 13.336C71.5195 11.828 70.8695 11.23 69.5435 11.23C68.2175 11.23 67.5675 11.828 66.9435 13.336L61.7695 25.686C61.1975 27.064 61.7695 28.078 62.9655 28.078C63.9795 28.104 64.4215 27.558 64.8375 26.492L65.7475 24.256H73.1575L74.0415 26.466C74.4575 27.558 75.1075 28.104 76.0435 28.078C77.2655 28.078 77.8895 27.064 77.2915 25.634ZM66.8915 21.37L69.4395 15.026L71.9875 21.37H66.8915ZM93.4202 11.256C92.4842 11.256 91.8082 11.932 91.8082 12.868V22.618L84.8922 12.972C84.1642 11.854 83.5402 11.23 82.4222 11.23C81.2522 11.23 80.5242 11.984 80.5242 13.284V26.466C80.5242 27.402 81.2002 28.078 82.1622 28.078C83.0982 28.078 83.7742 27.402 83.7742 26.466V16.924L90.6122 26.336C91.3922 27.428 92.0162 28.104 93.2642 28.104C94.3562 28.104 95.0582 27.324 95.0582 26.076V12.868C95.0582 11.932 94.3822 11.256 93.4202 11.256Z" fill="#BDBDBD"/>
</svg>
