<svg width="22" height="22" viewBox="0 0 22 22" fill="none" xmlns="http://www.w3.org/2000/svg">
<path d="M19.7386 6.51821C19.7525 6.71363 19.7525 6.9091 19.7525 7.10452C19.7525 13.0651 15.2157 19.9332 6.92386 19.9332C4.36928 19.9332 1.9962 19.1933 0 17.9091C0.362957 17.9509 0.711906 17.9649 1.08883 17.9649C3.19666 17.9649 5.13704 17.253 6.68654 16.0385C4.7043 15.9966 3.04313 14.6984 2.47079 12.9116C2.75 12.9535 3.02917 12.9814 3.32234 12.9814C3.72715 12.9814 4.132 12.9255 4.50888 12.8279C2.4429 12.4091 0.893363 10.5944 0.893363 8.40273V8.34692C1.49359 8.68194 2.19162 8.89133 2.93141 8.91922C1.71695 8.10956 0.921293 6.7276 0.921293 5.16413C0.921293 4.32659 1.1446 3.55882 1.53549 2.88877C3.75504 5.6248 7.09135 7.41157 10.8324 7.60704C10.7626 7.27201 10.7207 6.92306 10.7207 6.57407C10.7207 4.08927 12.7309 2.06519 15.2296 2.06519C16.5278 2.06519 17.7004 2.6096 18.524 3.48904C19.543 3.29362 20.5202 2.9167 21.3857 2.40021C21.0506 3.44719 20.3387 4.32663 19.4035 4.88497C20.3109 4.7873 21.1903 4.53597 21.9999 4.18703C21.3858 5.08039 20.618 5.87604 19.7386 6.51821Z" fill="white"/>
</svg>
