<svg width="137" height="26" viewBox="0 0 137 26" fill="none" xmlns="http://www.w3.org/2000/svg">
<path fill-rule="evenodd" clip-rule="evenodd" d="M49.1505 0.0620191C47.6196 0.265067 46.6414 2.0961 47.3262 3.47676C48.1626 5.16304 50.4032 5.35433 51.4893 3.83217C52.7002 2.13539 51.2418 -0.215387 49.1505 0.0620191ZM123.527 11.2341V21.8489H124.855H126.183L126.196 17.3426C126.21 12.3392 126.198 12.6062 126.459 11.7077C126.992 9.87662 128.502 8.82671 130.592 8.83349C132.738 8.84048 134.053 9.96798 134.305 12.016C134.329 12.2151 134.342 14.015 134.342 17.0868V21.8489H135.672H137.001L137 17.1788C136.999 12.4007 136.983 11.7242 136.856 11.0151C136.329 8.0666 134.172 6.29991 131.101 6.29991C129.076 6.29991 127.538 7.01338 126.472 8.44713L126.204 8.80851L126.194 4.71387L126.185 0.619235H124.856H123.527V11.2341ZM60.967 6.28822C57.5858 6.63481 54.9103 9.31958 54.3509 12.9274C54.2079 13.8494 54.2702 15.4107 54.4874 16.3503C55.0947 18.978 57.1696 21.2734 59.5904 21.9954C62.0804 22.7381 64.8666 22.0629 66.3473 20.3579L66.5749 20.0959V20.9724V21.8489H68.5413H70.5076V14.2747V6.70047H68.5413H66.5749V7.577V8.45354L66.3473 8.19146C65.1528 6.81605 63.0555 6.07414 60.967 6.28822ZM80.294 6.35518C78.6609 6.55284 77.3363 7.13052 76.1245 8.17351C74.7083 9.39234 73.8517 10.9201 73.5205 12.8181C73.3411 13.8463 73.4172 15.4811 73.6943 16.5506C74.3682 19.1515 76.5783 21.3332 79.2091 21.9947C80.5176 22.3237 82.1904 22.3298 83.423 22.0101C84.8971 21.6277 86.2767 20.7944 87.2471 19.7005C87.6368 19.2611 88.2561 18.3547 88.2025 18.3023C88.1114 18.2132 85.9652 17.0071 85.9546 17.039C85.8439 17.3711 85.0262 18.3011 84.5323 18.6568C83.2789 19.5593 81.5402 19.8662 79.9569 19.4646C76.2121 18.5147 74.78 13.7387 77.3317 10.7095C78.3903 9.4529 79.8364 8.83804 81.5959 8.89659C83.4107 8.95701 84.9569 9.85131 85.7468 11.2974C85.8711 11.5249 85.8866 11.5398 85.9597 11.5013C86.0756 11.4403 87.918 10.3803 88.014 10.3193L88.096 10.2673L87.9823 10.0406C86.687 7.45895 83.5598 5.9599 80.294 6.35518ZM97.0175 6.3207C96.9674 6.32918 96.7789 6.35416 96.5987 6.37623C93.7613 6.72363 91.1246 9.11177 90.3541 12.0322C89.416 15.5879 90.7679 19.1995 93.7596 21.1299C94.9482 21.897 96.1435 22.2267 97.7457 22.2296C100.163 22.2341 101.897 21.4106 103.224 19.6276L103.481 19.2817L103.491 20.5653L103.5 21.8489H104.811H106.121V14.2747V6.70047H104.811H103.5L103.491 7.98408L103.481 9.26769L103.224 8.92176C102.178 7.51695 100.817 6.68922 99.0567 6.38865C98.7281 6.33253 97.2402 6.28297 97.0175 6.3207ZM114.041 6.32117C112.979 6.4669 112.375 6.65149 111.705 7.0357C110.196 7.90044 109.398 9.20746 109.398 10.8153C109.398 12.3082 110.064 13.4286 111.431 14.2341C111.79 14.4461 112.138 14.5697 113.69 15.0378C115.412 15.5572 115.772 15.6817 116.376 15.9673C117.468 16.4834 117.846 16.9116 117.877 17.6654C117.931 18.9903 116.829 19.7566 114.879 19.7508C113.129 19.7454 111.785 18.9646 111.222 17.6248C111.176 17.5147 111.133 17.4192 111.127 17.4127C111.119 17.404 108.92 18.6516 108.861 18.6985C108.84 18.7149 109.036 19.1187 109.197 19.3903C110.426 21.4696 112.996 22.5363 115.948 22.1928C118.346 21.9137 120.123 20.5142 120.482 18.6213C120.857 16.6419 120.058 14.908 118.374 14.0516C117.946 13.8337 117.842 13.7986 116.296 13.3479C113.101 12.4166 112.254 11.9323 112.094 10.946C111.876 9.6081 113.318 8.59883 115.198 8.77373C116.498 8.89474 117.37 9.43163 117.885 10.4274C117.954 10.5605 118.024 10.6694 118.042 10.6695C118.059 10.6696 118.561 10.3952 119.157 10.0598L120.242 9.44995L120.157 9.28295C119.434 7.85536 117.852 6.73437 116.099 6.40733C115.697 6.33246 114.366 6.27671 114.041 6.32117ZM29.6875 6.70957C29.6878 6.71456 30.9804 10.1189 32.56 14.2747L35.432 21.8307H37.6799H39.9278L42.7998 14.2747C44.3794 10.1189 45.672 6.71456 45.6723 6.70957C45.6727 6.70458 44.7018 6.70047 43.515 6.70047H41.357L39.5192 11.9795C38.5084 14.883 37.6715 17.2467 37.6593 17.2323C37.6471 17.2179 36.8195 14.8423 35.8202 11.9533L34.0032 6.70047H31.8451C30.6581 6.70047 29.6872 6.70458 29.6875 6.70957ZM47.5665 14.2747V21.8489H49.5147H51.4628V14.2747V6.70047H49.5147H47.5665V14.2747ZM99.243 8.95566C101.41 9.4187 103.013 11.0787 103.395 13.2551C103.921 16.2528 102.135 18.9694 99.2243 19.5987C98.6842 19.7155 97.4924 19.7159 96.959 19.5995C94.6701 19.0998 93.0373 17.3098 92.7544 14.99C92.3889 11.9939 94.3091 9.37934 97.2245 8.90348C97.689 8.82762 98.7753 8.85574 99.243 8.95566ZM63.1874 10.0686C65.2241 10.427 66.5746 12.1041 66.5746 14.2747C66.5746 15.7739 65.9624 17.0135 64.827 17.8137C63.4019 18.8179 61.1965 18.7851 59.8132 17.7391C57.6212 16.0815 57.6212 12.4645 59.8132 10.8108C60.6996 10.1422 61.9911 9.85808 63.1874 10.0686Z" fill="black"/>
<rect x="0.00878906" y="4.98877" width="3.53221" height="21.0112" rx="1.76611" fill="#3CDBC0"/>
<rect x="5.39844" width="3.53221" height="26" rx="1.76611" fill="#3CDBC0"/>
<rect x="17.415" y="2.51221" width="3.53221" height="19.7731" rx="1.76611" fill="#3CDBC0"/>
<rect x="10.7871" y="4.98877" width="4.73389" height="17.2969" rx="2.36695" fill="#3CDBC0"/>
</svg>
