<svg width="26" height="26" viewBox="0 0 26 26" fill="none" xmlns="http://www.w3.org/2000/svg">
<path fill-rule="evenodd" clip-rule="evenodd" d="M18.46 15.3341C18.1635 15.1868 16.7058 14.4745 16.434 14.3762C16.1622 14.2779 15.9645 14.2288 15.7668 14.5235C15.5692 14.8183 15.001 15.4815 14.8279 15.6781C14.655 15.8745 14.482 15.8992 14.1856 15.7518C13.889 15.6044 12.9336 15.2935 11.8011 14.2903C10.9196 13.5096 10.3245 12.5454 10.1515 12.2505C9.9786 11.9558 10.1331 11.7965 10.2816 11.6496C10.415 11.5177 10.5781 11.3057 10.7263 11.1338C10.8746 10.9619 10.924 10.839 11.0228 10.6426C11.1217 10.4461 11.0723 10.2741 10.9981 10.1268C10.924 9.97939 10.331 8.53002 10.0839 7.94041C9.84324 7.36639 9.59879 7.44414 9.41677 7.43499C9.24402 7.42646 9.04612 7.42465 8.84851 7.42465C8.65083 7.42465 8.32958 7.49833 8.05782 7.79305C7.78601 8.08789 7.02002 8.80022 7.02002 10.2495C7.02002 11.6988 8.08252 13.0988 8.2308 13.2953C8.37902 13.4919 10.3216 16.4659 13.2961 17.7414C14.0035 18.0447 14.5558 18.2259 14.9864 18.3616C15.6967 18.5858 16.3431 18.5541 16.854 18.4783C17.4237 18.3938 18.6083 17.766 18.8554 17.0782C19.1024 16.3904 19.1024 15.8009 19.0283 15.6781C18.9542 15.5553 18.7565 15.4815 18.46 15.3341ZM21.4442 4.53923C19.2038 2.31181 16.2242 1.08462 13.0497 1.08337C6.50888 1.08337 1.18541 6.36932 1.18279 12.8665C1.18194 14.9435 1.72835 16.9707 2.76684 18.7579L1.08333 24.8642L7.3741 23.2255C9.1074 24.1643 11.0589 24.6592 13.045 24.6599H13.0498H13.0499C19.5901 24.6599 24.914 19.3733 24.9167 12.876C24.9179 9.72731 23.6847 6.76659 21.4442 4.53923Z" fill="#4C4C4C"/>
</svg>
